<svg xmlns="http://www.w3.org/2000/svg" viewBox="0 0 186.37 65.16"><defs><style>.cls-1{fill:#f4c500;}</style></defs><title>Recurso 1</title><g id="Capa_2" data-name="Capa 2"><g id="Capa_1-2" data-name="Capa 1"><path class="cls-1" d="M58.19,0a16.45,16.45,0,0,1,7.55,2.23A12,12,0,0,1,70.29,7a12.59,12.59,0,0,1,1.3,6.37,15.61,15.61,0,0,1-2.15,7A23.72,23.72,0,0,1,63.55,27a32.11,32.11,0,0,1-9.82,5.16,10.11,10.11,0,0,1,1.74,4.14,12.24,12.24,0,0,1-.2,5.11,20.42,20.42,0,0,1-2.56,5.89,36,36,0,0,1-5.31,6.53,29.77,29.77,0,0,1-5.28,4.1,46.58,46.58,0,0,1-6.86,3.54A52.93,52.93,0,0,1,27.59,64a40.17,40.17,0,0,1-7.88,1.14,27.89,27.89,0,0,1-7.43-.65,16.21,16.21,0,0,1-6.21-2.84A14.32,14.32,0,0,1,1.2,55.71a15.76,15.76,0,0,1-1.17-7,23.57,23.57,0,0,1,1.7-7.47A35.61,35.61,0,0,1,5.63,34a44.59,44.59,0,0,1,5.31-6.34,34.78,34.78,0,0,1,5.93-4.75,29.15,29.15,0,0,1-8,.57A12.07,12.07,0,0,1,3.88,22.1a5.82,5.82,0,0,1-2.47-2.56,6,6,0,0,1-.57-3,6.93,6.93,0,0,1,.77-2.72,4.19,4.19,0,0,1,1.46-1.7c-.38,1.67-.14,2.93.73,3.77a6.29,6.29,0,0,0,3.78,1.54,23.76,23.76,0,0,0,6-.2,59.8,59.8,0,0,0,7.31-1.5c2.54-.68,5.11-1.46,7.71-2.36s5-1.79,7.31-2.72S40.16,8.86,41.92,8a26.36,26.36,0,0,0,3.85-2.15l.94-.61a8.33,8.33,0,0,1,.93-.53c.54,0,1.28,0,2.23.08a15.5,15.5,0,0,1,2.8.41,9.94,9.94,0,0,1,2.52.93,3.22,3.22,0,0,1,1.54,1.58,12.31,12.31,0,0,0-3.65,2.4A39.09,39.09,0,0,0,49,14.43c-1.41,1.7-2.88,3.63-4.42,5.76s-3.16,4.38-4.83,6.7a11.73,11.73,0,0,1,4.83,0A20.75,20.75,0,0,1,48.29,28a27.82,27.82,0,0,0,8-4.26,19.14,19.14,0,0,0,4.79-5.36,11,11,0,0,0,1.54-5.56A8.11,8.11,0,0,0,61,7.94a10.45,10.45,0,0,0-5-3.37,20.82,20.82,0,0,0-8.2-1,4.08,4.08,0,0,1,1.67-1.42A17.83,17.83,0,0,1,52.31,1,19.13,19.13,0,0,1,55.47.18,12.86,12.86,0,0,1,58.19,0ZM42.69,49.14q4.31-4.64,4.87-8.53a7.43,7.43,0,0,0-1.87-6.49,8.67,8.67,0,0,1-2.39.56c-.95.11-1.94.2-3,.25s-2,0-3.08,0a19.62,19.62,0,0,1-2.84-.33q-5,7-10.35,13.6A69.54,69.54,0,0,1,12.81,59.45a5.37,5.37,0,0,1-1.62-.73,8.75,8.75,0,0,1-1.58-1.26,6,6,0,0,1-1.06-1.34c-.24-.44-.26-.76,0-1a110.34,110.34,0,0,0,8.24-9.74c2.52-3.35,4.87-6.7,7.06-10s4.26-6.55,6.21-9.67,3.87-6,5.77-8.72q-4.3,1.79-7.88,3t-6.57,2a15.66,15.66,0,0,1,3,3.53,9.33,9.33,0,0,1,1.58,4.1,43.55,43.55,0,0,0-11.16,7.55,30.17,30.17,0,0,0-6.21,8.12,16,16,0,0,0-1.87,7.35,7.78,7.78,0,0,0,1.79,5.23A11.29,11.29,0,0,0,14,60.7a20.81,20.81,0,0,0,8.36.21,32.23,32.23,0,0,0,10-3.53A41,41,0,0,0,42.69,49.14Z"/><path class="cls-1" d="M93.51,37.36a.87.87,0,0,1,.81-.36,1.48,1.48,0,0,1,.85.36,1.58,1.58,0,0,1,.49.86,1.27,1.27,0,0,1-.2,1,41.87,41.87,0,0,1-3.17,4.22q-1.79,2.11-3.82,4.22a12.62,12.62,0,0,1-4.22,2.76,10.77,10.77,0,0,1-4.38.82,23.59,23.59,0,0,1-7,4.79,15.77,15.77,0,0,1-6.42,1.38,8.87,8.87,0,0,1-5-1.55,7.17,7.17,0,0,1-2.8-4A10.53,10.53,0,0,1,58.92,46a21.76,21.76,0,0,1,4.22-7.35,29.78,29.78,0,0,1,7.39-6.57,21.08,21.08,0,0,1,7.35-2.93,11.78,11.78,0,0,1,6.13.45,6.28,6.28,0,0,1,3.73,3.45,9.26,9.26,0,0,1,0,6.17A24.8,24.8,0,0,1,83,47.76a6.22,6.22,0,0,0,3-1.71q1.79-1.78,3.69-3.94T93.51,37.36ZM70.13,41.83a27,27,0,0,0-4.71,6.49c-.81,1.79-1,3.08-.57,3.86s1.42,1,3,.61a17.41,17.41,0,0,0,5.89-3.33,3.9,3.9,0,0,1-1.63-1.62,7.79,7.79,0,0,1-.89-2.52,9.3,9.3,0,0,1,0-2.84,6.85,6.85,0,0,1,1-2.76c-.33.32-.65.66-1,1S70.5,41.45,70.13,41.83Zm11.44-3.49a3.15,3.15,0,0,0-2.8.36,7,7,0,0,0-2.19,2.24,6.57,6.57,0,0,0-1,3,3.19,3.19,0,0,0,1,2.72A24.43,24.43,0,0,0,80,42.11,16.53,16.53,0,0,0,81.57,38.34Z"/><path class="cls-1" d="M120.22,37.28a.83.83,0,0,1,.77-.36,1.45,1.45,0,0,1,.81.36,1.61,1.61,0,0,1,.49.82,1.4,1.4,0,0,1-.21,1,54.07,54.07,0,0,1-3.61,4.71c-1.38,1.62-2.83,3.17-4.34,4.63s-3,2.81-4.51,4.06a25.9,25.9,0,0,1-4.18,2.92,17.65,17.65,0,0,1-3.21,1.38,5,5,0,0,1-2.67.2,2.1,2.1,0,0,1-1.51-1.5,6.24,6.24,0,0,1,.49-3.74,12.86,12.86,0,0,1-4.91,4.39,7.12,7.12,0,0,1-4.63.73,4.15,4.15,0,0,1-2.88-2.68q-.9-2.19.32-5.93a25.34,25.34,0,0,1,2.24-4.75,61.38,61.38,0,0,1,3.53-5.39,49.21,49.21,0,0,1,4.06-4.92,21.11,21.11,0,0,1,3.89-3.36,4.18,4.18,0,0,1,2.52-.57,10.67,10.67,0,0,1,2.72.48,11.51,11.51,0,0,1,2.11.9c.57.32.77.57.61.73a68.34,68.34,0,0,0-5.4,5.52c-1.92,2.16-3.68,4.29-5.28,6.37s-2.89,3.91-3.89,5.48-1.4,2.49-1.18,2.76a1,1,0,0,0,1,.45,4.16,4.16,0,0,0,1.9-.94,25.6,25.6,0,0,0,3.09-2.84c1.24-1.3,2.73-3.05,4.46-5.27.65-.82,1.35-1.74,2.11-2.76s1.52-2,2.28-3l2.11-2.72c.65-.84,1.19-1.5,1.62-2a3.14,3.14,0,0,1,1.5.57,14.71,14.71,0,0,1,1.83,1.34,20.39,20.39,0,0,1,1.54,1.46c.43.46.62.75.57.85l-1.79,2c-1.13,1.28-2.47,2.8-4,4.59S107.51,47,106,48.93a44.83,44.83,0,0,0-3.61,5.24,26.6,26.6,0,0,0,2.84-1.79A48.24,48.24,0,0,0,109.46,49a70.86,70.86,0,0,0,5.15-5.07Q117.37,40.93,120.22,37.28Z"/><path class="cls-1" d="M143.27,37.36A.84.84,0,0,1,144,37a1.42,1.42,0,0,1,.81.36,1.54,1.54,0,0,1,.49.82,1.43,1.43,0,0,1-.2,1,40.77,40.77,0,0,1-2.8,3.78q-1.59,1.91-3.33,3.81c-1.16,1.27-2.35,2.48-3.57,3.61s-2.4,2.14-3.53,3a33.06,33.06,0,0,1-6.86,4.06A15.84,15.84,0,0,1,118.39,59a5.4,5.4,0,0,1-4.55-2.35c-1-1.52-1.23-4.06-.53-7.64a23.25,23.25,0,0,1,1.55-4.62,28.8,28.8,0,0,1,2.55-4.55,31.23,31.23,0,0,1,7-7.31A12.72,12.72,0,0,1,130.16,30a7.32,7.32,0,0,1,4.59.65,5.64,5.64,0,0,1,2.64,3.12,6.89,6.89,0,0,1-.21,4.79,18.12,18.12,0,0,1-2.64,5,31,31,0,0,1-4.14,4.67A37.65,37.65,0,0,1,125.61,52,20.06,20.06,0,0,1,121,54.41a6.42,6.42,0,0,0,2.88,0,9,9,0,0,0,3.86-1.58,63.63,63.63,0,0,0,6.73-5.64A80.72,80.72,0,0,0,143.27,37.36Zm-10.8.41c-.92-.16-2,.31-3.16,1.42a30.64,30.64,0,0,0-3.49,3.9,43.49,43.49,0,0,0-3,4.38,18.08,18.08,0,0,0-1.5,3,19,19,0,0,0,4-2.76,42.71,42.71,0,0,0,4.14-4,22.1,22.1,0,0,0,2.84-3.78C133,38.74,133,38,132.47,37.77Z"/><path class="cls-1" d="M177,5.22a6.52,6.52,0,0,1,2.48.36,14.92,14.92,0,0,1,2.64,1.1,9.4,9.4,0,0,1,2.07,1.46,2.17,2.17,0,0,1,.85,1.38c-.65-.22-1.74,0-3.29.61a31.13,31.13,0,0,0-5.68,3.24,78.41,78.41,0,0,0-7.55,6.05,121,121,0,0,0-8.89,8.93Q153.18,35.66,149.32,41A56.43,56.43,0,0,0,144,49.34q-1.41,3-.44,3.61t4.06-1.7a51.61,51.61,0,0,0,6-5.28,99.45,99.45,0,0,0,7.47-8.52.85.85,0,0,1,.81-.45,1.51,1.51,0,0,1,.86.36,1.63,1.63,0,0,1,.48.86,1.23,1.23,0,0,1-.2,1q-1.14,1.55-2.76,3.57T156.75,47q-2,2.16-4,4.14a44,44,0,0,1-4,3.46,15,15,0,0,1-5,2.39,7.76,7.76,0,0,1-4.59,0,4.31,4.31,0,0,1-2.68-3c-.48-1.52-.25-3.64.69-6.38a49.18,49.18,0,0,1,5.48-10.23,129.86,129.86,0,0,1,11.69-14.57q4.23-4.62,7.59-7.75A72.15,72.15,0,0,1,168,10a34,34,0,0,1,4.95-3.08A27.13,27.13,0,0,1,177,5.22Z"/><path class="cls-1" d="M184.27,37.36A.83.83,0,0,1,185,37a1.42,1.42,0,0,1,.81.36,1.54,1.54,0,0,1,.49.82,1.43,1.43,0,0,1-.2,1,42.66,42.66,0,0,1-2.8,3.78q-1.59,1.91-3.33,3.81c-1.17,1.27-2.36,2.48-3.57,3.61s-2.4,2.14-3.54,3A32.8,32.8,0,0,1,166,57.5,15.77,15.77,0,0,1,159.39,59a5.39,5.39,0,0,1-4.55-2.35c-1.06-1.52-1.23-4.06-.53-7.64a23.85,23.85,0,0,1,1.54-4.62,29.68,29.68,0,0,1,2.56-4.55,30.36,30.36,0,0,1,3.33-4.06,32.8,32.8,0,0,1,3.69-3.25A12.76,12.76,0,0,1,171.16,30a7.28,7.28,0,0,1,4.58.65,5.57,5.57,0,0,1,2.64,3.12,6.83,6.83,0,0,1-.2,4.79,18.12,18.12,0,0,1-2.64,5,32.11,32.11,0,0,1-4.14,4.67A38.36,38.36,0,0,1,166.61,52,19.91,19.91,0,0,1,162,54.41a6.48,6.48,0,0,0,2.89,0,8.87,8.87,0,0,0,3.85-1.58,63.55,63.55,0,0,0,6.74-5.64A81.56,81.56,0,0,0,184.27,37.36Zm-10.8.41c-.92-.16-2,.31-3.16,1.42a30.69,30.69,0,0,0-3.5,3.9,45.07,45.07,0,0,0-3,4.38,17.26,17.26,0,0,0-1.5,3,19,19,0,0,0,4-2.76,45.13,45.13,0,0,0,4.14-4,22.64,22.64,0,0,0,2.84-3.78C174,38.74,174,38,173.47,37.77Z"/></g></g></svg>