<svg xmlns="http://www.w3.org/2000/svg" viewBox="0 0 39.5 52.6"><defs><style>.cls-1{fill:#f4c500;}</style></defs><title>notify-icon</title><g id="Capa_2" data-name="Capa 2"><g id="Capa_1-2" data-name="Capa 1"><path class="cls-1" d="M11,43.83H7.71c-1.72,0-3.43,0-5.14,0A2.26,2.26,0,0,1,.18,42.49a2.35,2.35,0,0,1,.75-2.7c1-1.07,2-2.22,2.9-3.36a3,3,0,0,0,.63-2c0-3.33,0-6.66,0-10,.11-6.7,3.23-11.48,9.25-14.39l.36-.19A6.54,6.54,0,0,1,16.34,1,6.47,6.47,0,0,1,24,1.53c2.43,2.05,3,4.85,1.53,8.32l.65.31c5.77,2.88,8.87,7.5,9,14,.08,3.4,0,6.8,0,10.2a3.17,3.17,0,0,0,.7,2.22c1,1.18,2,2.35,3,3.49a2.14,2.14,0,0,1-.08,3.21,2.92,2.92,0,0,1-1.62.55c-2.58,0-5.16,0-7.74,0h-.79A8.89,8.89,0,0,1,25,50.89a8.49,8.49,0,0,1-5.72,1.69C14.74,52.33,11.8,49.25,11,43.83ZM7.08,39.4H32.46c-.13-.21-.2-.35-.29-.47a6.86,6.86,0,0,1-1.43-4.53c.09-3.44.08-6.89.06-10.33a10.56,10.56,0,0,0-3-7.56,11,11,0,0,0-12-2.55A10.86,10.86,0,0,0,8.9,24c0,3.58-.06,7.16,0,10.74a6.47,6.47,0,0,1-1.33,4Zm8.36,4.47a4.24,4.24,0,0,0,2.13,3.73,4.12,4.12,0,0,0,4.59-.08,4.1,4.1,0,0,0,2-3.65ZM19.79,8.76a2.19,2.19,0,1,0-2.18-2.15A2.16,2.16,0,0,0,19.79,8.76Z"/></g></g></svg>